# xmcd
# 
# Track frame offsets:
#     150
#     5545
#     14069
#     23701
#     34324
#     42203
#     49251
#     56084
#     64856
#     74679
#     80900
#     89189
#     94906
#     105202
#     114774
#     125456
#     135117
#     146219
#     156006
#     163602
#     174584
#     183387
#     194064
#     204481
#     212347
# 
# Disc length: 2959
# 
# Revision: 0
# Processed by: cddbd v1.5.2PL0 Copyright (c) Steve Scherf et al.
# Submitted via: fre:ac v1.0.31
# 
DISCID=6a0b8d19
DTITLE=Country - 50 Smoky Mountain Classics Disc 2
DYEAR=0
DGENRE=Country
TTITLE0=Sourwood Mountain
TTITLE1=Cripple Creek
TTITLE2=Mule Skinner Blues
TTITLE3=Gold Watch and Chain
TTITLE4=Sweeter Than The Flowers
TTITLE5=Cackling Hen
TTITLE6=I'll Go Stepping Too
TTITLE7=Down In The Willow Garden
TTITLE8=White Dove
TTITLE9=Will You Be Lovin' Another Man
TTITLE10=Let The Church Roll On
TTITLE11=Double Eagle
TTITLE12=More Pretty Girls Than One
TTITLE13=Cotton Eyed Joe
TTITLE14=Mole In The Ground
TTITLE15=Long Black Veil
TTITLE16=The Great Speckled Bird
TTITLE17=Beautiful Star Of Bethlehem
TTITLE18=Little Darlin' Pal Of Mine
TTITLE19=Sparkling Blue Eyes
TTITLE20=I'm Getting Ready To Go
TTITLE21=Careless Love
TTITLE22=Angel Band
TTITLE23=Fly Around My Pretty Little Miss
TTITLE24=Going Down The Road Feeling Bad
EXTD=
EXTT0=
EXTT1=
EXTT2=
EXTT3=
EXTT4=
EXTT5=
EXTT6=
EXTT7=
EXTT8=
EXTT9=
EXTT10=
EXTT11=
EXTT12=
EXTT13=
EXTT14=
EXTT15=
EXTT16=
EXTT17=
EXTT18=
EXTT19=
EXTT20=
EXTT21=
EXTT22=
EXTT23=
EXTT24=
PLAYORDER=
